<svg width="165" height="30" viewBox="0 0 165 30" fill="none" xmlns="http://www.w3.org/2000/svg">
<circle cx="15" cy="15" r="14.5" stroke="white"/>
<path d="M7.01303 15.2806L10.4616 16.5665L11.8059 20.8918C11.8644 21.184 12.2151 21.2425 12.4489 21.0671L14.3778 19.489C14.5531 19.3136 14.8454 19.3136 15.0792 19.489L18.5277 22.0023C18.7615 22.1777 19.1122 22.0608 19.1707 21.7685L21.7425 9.49399C21.8009 9.20174 21.5087 8.90949 21.2164 9.02639L7.01303 14.5207C6.66232 14.6376 6.66232 15.1637 7.01303 15.2806ZM11.6306 15.9235L18.4108 11.7735C18.5277 11.7151 18.6446 11.8905 18.5277 11.9489L12.975 17.151C12.7996 17.3263 12.6242 17.5601 12.6242 17.8524L12.4489 19.2552C12.4489 19.4305 12.1566 19.489 12.0982 19.2552L11.3968 16.6834C11.2214 16.3911 11.3384 16.0404 11.6306 15.9235Z" fill="white"/>
<circle cx="60" cy="15" r="14.5" stroke="white"/>
<path d="M67.95 11.175C67.425 11.4 66.825 11.55 66.225 11.625C66.825 11.25 67.35 10.65 67.575 9.975C66.975 10.35 66.375 10.575 65.625 10.725C65.1 10.125 64.275 9.75 63.45 9.75C61.8 9.75 60.45 11.1 60.45 12.75C60.45 12.975 60.45 13.2 60.525 13.425C58.05 13.275 55.8 12.075 54.3 10.275C54.075 10.725 53.925 11.25 53.925 11.775C53.925 12.825 54.45 13.725 55.275 14.25C54.75 14.25 54.3 14.1 53.925 13.875C53.925 15.3 54.975 16.575 56.325 16.8C56.1 16.875 55.8 16.875 55.5 16.875C55.275 16.875 55.125 16.875 54.9 16.8C55.275 18 56.4 18.9 57.75 18.9C56.7 19.725 55.425 20.175 54 20.175C53.775 20.175 53.55 20.175 53.25 20.1C54.6 20.925 56.175 21.45 57.9 21.45C63.45 21.45 66.45 16.875 66.45 12.9V12.525C67.05 12.3 67.575 11.775 67.95 11.175Z" fill="white"/>
<g clip-path="url(#clip0_1_31)">
<path d="M119.5 15C119.5 23.0077 113.008 29.5 105 29.5C96.9923 29.5 90.5 23.0077 90.5 15C90.5 6.99233 96.9923 0.5 105 0.5C113.009 0.5 119.5 6.99229 119.5 15Z" stroke="white"/>
<path d="M97.4004 15.504L97.4651 15.4023L101.367 9.29796C101.424 9.20859 101.558 9.21783 101.601 9.31491C102.253 10.7759 102.816 12.5929 102.552 13.724C102.44 14.1895 102.132 14.8198 101.785 15.4023C101.74 15.4871 101.691 15.5703 101.638 15.6504C101.614 15.6874 101.572 15.709 101.527 15.709H97.5144C97.4066 15.709 97.3434 15.5919 97.4004 15.504Z" fill="white"/>
<path d="M114.793 16.6383V17.6046C114.793 17.66 114.759 17.7094 114.71 17.7309C114.408 17.8604 113.374 18.335 112.944 18.933C111.847 20.4602 111.008 22.644 109.134 22.644H101.316C98.5454 22.644 96.3 20.3909 96.3 17.6107V17.5213C96.3 17.4474 96.3601 17.3873 96.4341 17.3873H100.792C100.879 17.3873 100.942 17.4674 100.934 17.5522C100.903 17.8357 100.956 18.1255 101.09 18.389C101.349 18.9145 101.885 19.2428 102.464 19.2428H104.622V17.5583H102.489C102.38 17.5583 102.315 17.432 102.378 17.3426C102.401 17.3071 102.427 17.2702 102.455 17.2286C102.657 16.9419 102.945 16.4965 103.232 15.9895C103.428 15.6474 103.617 15.2821 103.77 14.9153C103.801 14.8491 103.825 14.7812 103.85 14.715C103.891 14.5979 103.935 14.4884 103.965 14.379C103.996 14.2865 104.021 14.1895 104.046 14.0985C104.118 13.7872 104.149 13.4574 104.149 13.1153C104.149 12.9812 104.143 12.841 104.13 12.7069C104.124 12.5605 104.106 12.4141 104.087 12.2677C104.075 12.1382 104.052 12.0103 104.027 11.8763C103.996 11.6805 103.953 11.4864 103.904 11.2906L103.887 11.2167C103.85 11.0826 103.819 10.9547 103.776 10.8206C103.654 10.3999 103.514 9.98994 103.366 9.60621C103.312 9.45363 103.25 9.30723 103.189 9.16083C103.098 8.94045 103.005 8.74011 102.921 8.55054C102.877 8.46423 102.84 8.38563 102.803 8.3055C102.762 8.21457 102.719 8.12364 102.676 8.03736C102.645 7.97109 102.609 7.90944 102.585 7.84779L102.321 7.3608C102.284 7.29453 102.346 7.21593 102.418 7.23597L104.067 7.68288H104.072C104.075 7.68288 104.076 7.68444 104.078 7.68444L104.295 7.74453L104.534 7.81236L104.622 7.83699V6.85686C104.622 6.38373 105.001 6 105.47 6C105.704 6 105.917 6.09555 106.069 6.25119C106.222 6.40686 106.317 6.61953 106.317 6.85686V8.31168L106.493 8.36097C106.507 8.36562 106.521 8.37177 106.533 8.38101C106.576 8.41338 106.638 8.46114 106.716 8.51973C106.778 8.56902 106.844 8.62914 106.924 8.69079C107.083 8.81868 107.273 8.98359 107.481 9.17316C107.536 9.22092 107.59 9.27024 107.639 9.31956C107.908 9.56922 108.208 9.86202 108.495 10.1857C108.575 10.2766 108.654 10.3691 108.734 10.4661C108.814 10.5648 108.899 10.6619 108.973 10.759C109.07 10.8884 109.174 11.0225 109.265 11.1627C109.309 11.229 109.358 11.2968 109.399 11.3631C109.517 11.5403 109.62 11.7237 109.718 11.9071C109.76 11.9918 109.803 12.0843 109.84 12.1752C109.95 12.4203 110.036 12.6699 110.091 12.9196C110.108 12.9735 110.121 13.0321 110.127 13.0845V13.0968C110.145 13.1708 110.151 13.2494 110.158 13.3295C110.182 13.5854 110.17 13.8412 110.115 14.0985C110.091 14.208 110.061 14.3112 110.024 14.4206C109.987 14.5254 109.95 14.6348 109.902 14.7381C109.809 14.9523 109.7 15.1665 109.57 15.3669C109.529 15.4409 109.48 15.5195 109.43 15.5934C109.376 15.672 109.321 15.746 109.272 15.8184C109.204 15.9109 109.131 16.008 109.057 16.0943C108.991 16.1852 108.923 16.2761 108.849 16.3563C108.746 16.478 108.647 16.5936 108.544 16.7046C108.482 16.777 108.416 16.851 108.348 16.9172C108.282 16.9912 108.214 17.0575 108.153 17.1191C108.049 17.2224 107.963 17.3025 107.891 17.3688L107.721 17.5244C107.697 17.546 107.664 17.5583 107.63 17.5583H106.317V19.2428H107.969C108.339 19.2428 108.691 19.1118 108.974 18.8714C109.071 18.7866 109.495 18.4198 109.996 17.8666C110.013 17.8481 110.034 17.8342 110.059 17.828L114.622 16.5089C114.707 16.4842 114.793 16.5489 114.793 16.6383Z" fill="white"/>
</g>
<path d="M164.5 15C164.5 23.0081 158.008 29.5 150 29.5C141.992 29.5 135.5 23.0081 135.5 15C135.5 6.99187 141.992 0.5 150 0.5C158.008 0.5 164.5 6.99187 164.5 15Z" stroke="white"/>
<path d="M155.198 9.99473C154.242 9.53432 153.217 9.1951 152.145 9.00082C152.125 8.99707 152.106 9.00644 152.096 9.02518C151.964 9.27131 151.818 9.59241 151.716 9.84479C150.563 9.66363 149.416 9.66363 148.286 9.84479C148.184 9.5868 148.033 9.27131 147.9 9.02518C147.89 9.00706 147.871 8.99769 147.851 9.00081C146.78 9.19448 145.755 9.53369 144.798 9.99473C144.79 9.99848 144.783 10.0047 144.778 10.0129C142.833 13.0621 142.301 16.0364 142.562 18.9738C142.563 18.9881 142.571 19.0019 142.581 19.0106C143.865 19.9995 145.107 20.5999 146.327 20.9978C146.347 21.0041 146.367 20.9966 146.38 20.9797C146.668 20.5662 146.925 20.1301 147.146 19.6715C147.159 19.6447 147.147 19.6128 147.12 19.6022C146.712 19.4398 146.324 19.2417 145.95 19.0169C145.92 18.9987 145.918 18.9544 145.945 18.9331C146.024 18.8713 146.102 18.8069 146.177 18.742C146.191 18.7301 146.21 18.7276 146.226 18.7351C148.681 19.9114 151.338 19.9114 153.764 18.7351C153.78 18.727 153.799 18.7295 153.813 18.7413C153.889 18.8063 153.967 18.8713 154.046 18.9331C154.074 18.9544 154.072 18.9987 154.042 19.0169C153.669 19.2461 153.28 19.4398 152.872 19.6016C152.845 19.6122 152.833 19.6447 152.846 19.6715C153.071 20.1295 153.329 20.5655 153.612 20.9791C153.624 20.9966 153.645 21.0041 153.664 20.9978C154.89 20.5999 156.133 19.9995 157.416 19.0106C157.427 19.0019 157.434 18.9887 157.435 18.9744C157.748 15.5784 156.912 12.6285 155.218 10.0135C155.213 10.0047 155.206 9.99848 155.198 9.99473ZM147.513 17.1852C146.773 17.1852 146.164 16.473 146.164 15.5984C146.164 14.7238 146.762 14.0117 147.513 14.0117C148.269 14.0117 148.872 14.7301 148.861 15.5984C148.861 16.473 148.263 17.1852 147.513 17.1852ZM152.497 17.1852C151.758 17.1852 151.149 16.473 151.149 15.5984C151.149 14.7238 151.746 14.0117 152.497 14.0117C153.254 14.0117 153.857 14.7301 153.845 15.5984C153.845 16.473 153.254 17.1852 152.497 17.1852Z" fill="white"/>
<defs>
<clipPath id="clip0_1_31">
<rect width="30" height="30" fill="white" transform="translate(90)"/>
</clipPath>
</defs>
</svg>
