<svg width="83" height="17" viewBox="0 0 83 17" fill="none" xmlns="http://www.w3.org/2000/svg">
<path d="M30.28 16.0401C29.9067 16.0401 29.5867 15.9135 29.32 15.6601C29.0534 15.3935 28.92 15.0601 28.92 14.6601C28.92 14.2735 29.0534 13.9535 29.32 13.7001C29.5867 13.4335 29.9067 13.3001 30.28 13.3001C30.6534 13.3001 30.9667 13.4268 31.22 13.6801C31.4734 13.9335 31.6 14.2601 31.6 14.6601C31.6 15.0601 31.4667 15.3935 31.2 15.6601C30.9467 15.9135 30.64 16.0401 30.28 16.0401Z" fill="white"/>
<path d="M37.3913 16.0401C36.5246 16.0401 35.6913 15.9268 34.8913 15.7001C34.0913 15.4601 33.4646 15.1601 33.0113 14.8001L33.8113 13.2801C34.278 13.6135 34.8446 13.8801 35.5113 14.0801C36.178 14.2801 36.8513 14.3801 37.5313 14.3801C39.2113 14.3801 40.0513 13.9001 40.0513 12.9401C40.0513 12.6201 39.938 12.3668 39.7113 12.1801C39.4846 11.9935 39.198 11.8601 38.8513 11.7801C38.518 11.6868 38.038 11.5868 37.4113 11.4801C36.558 11.3468 35.858 11.1935 35.3113 11.0201C34.778 10.8468 34.318 10.5535 33.9313 10.1401C33.5446 9.72679 33.3513 9.14679 33.3513 8.40012C33.3513 7.44012 33.7513 6.67345 34.5513 6.10012C35.3513 5.51345 36.4246 5.22012 37.7713 5.22012C38.478 5.22012 39.1846 5.30679 39.8913 5.48012C40.598 5.65346 41.178 5.88679 41.6313 6.18012L40.8113 7.70012C39.9446 7.14012 38.9246 6.86012 37.7513 6.86012C36.938 6.86012 36.318 6.99346 35.8913 7.26012C35.4646 7.52679 35.2513 7.88012 35.2513 8.32012C35.2513 8.66679 35.3713 8.94012 35.6113 9.14012C35.8513 9.34012 36.1446 9.48679 36.4913 9.58012C36.8513 9.67346 37.3513 9.78012 37.9913 9.90012C38.8446 10.0468 39.5313 10.2068 40.0513 10.3801C40.5846 10.5401 41.038 10.8201 41.4113 11.2201C41.7846 11.6201 41.9713 12.1801 41.9713 12.9001C41.9713 13.8601 41.558 14.6268 40.7313 15.2001C39.918 15.7601 38.8046 16.0401 37.3913 16.0401Z" fill="white"/>
<path d="M49.9508 15.3001C49.6708 15.5401 49.3242 15.7268 48.9108 15.8601C48.4975 15.9801 48.0708 16.0401 47.6308 16.0401C46.5642 16.0401 45.7375 15.7535 45.1508 15.1801C44.5642 14.6068 44.2708 13.7868 44.2708 12.7201V3.00012H46.1908V5.32012H49.2308V6.90012H46.1908V12.6401C46.1908 13.2135 46.3308 13.6535 46.6108 13.9601C46.9042 14.2668 47.3175 14.4201 47.8508 14.4201C48.4375 14.4201 48.9375 14.2535 49.3508 13.9201L49.9508 15.3001Z" fill="white"/>
<path d="M56.4499 16.0401C55.3966 16.0401 54.4499 15.8068 53.6099 15.3401C52.7699 14.8735 52.1099 14.2335 51.6299 13.4201C51.1632 12.5935 50.9299 11.6601 50.9299 10.6201C50.9299 9.58012 51.1632 8.65346 51.6299 7.84012C52.1099 7.01346 52.7699 6.37346 53.6099 5.92012C54.4499 5.45346 55.3966 5.22012 56.4499 5.22012C57.5032 5.22012 58.4432 5.45346 59.2699 5.92012C60.1099 6.37346 60.7632 7.01346 61.2299 7.84012C61.7099 8.65346 61.9499 9.58012 61.9499 10.6201C61.9499 11.6601 61.7099 12.5935 61.2299 13.4201C60.7632 14.2335 60.1099 14.8735 59.2699 15.3401C58.4432 15.8068 57.5032 16.0401 56.4499 16.0401ZM56.4499 14.3601C57.1299 14.3601 57.7366 14.2068 58.2699 13.9001C58.8166 13.5801 59.2432 13.1401 59.5499 12.5801C59.8566 12.0068 60.0099 11.3535 60.0099 10.6201C60.0099 9.88679 59.8566 9.24012 59.5499 8.68012C59.2432 8.10679 58.8166 7.66679 58.2699 7.36012C57.7366 7.05345 57.1299 6.90012 56.4499 6.90012C55.7699 6.90012 55.1566 7.05345 54.6099 7.36012C54.0766 7.66679 53.6499 8.10679 53.3299 8.68012C53.0232 9.24012 52.8699 9.88679 52.8699 10.6201C52.8699 11.3535 53.0232 12.0068 53.3299 12.5801C53.6499 13.1401 54.0766 13.5801 54.6099 13.9001C55.1566 14.2068 55.7699 14.3601 56.4499 14.3601Z" fill="white"/>
<path d="M66.4452 7.10012C66.7785 6.48679 67.2719 6.02012 67.9252 5.70012C68.5785 5.38012 69.3719 5.22012 70.3052 5.22012V7.08012C70.1985 7.06679 70.0519 7.06012 69.8652 7.06012C68.8252 7.06012 68.0052 7.37346 67.4052 8.00012C66.8185 8.61346 66.5252 9.49345 66.5252 10.6401V15.9201H64.6052V5.32012H66.4452V7.10012Z" fill="white"/>
<path d="M77.354 14.3601C78.6206 14.3601 79.6406 13.9335 80.4139 13.0801L81.4539 14.3201C80.9873 14.8801 80.394 15.3068 79.674 15.6001C78.9673 15.8935 78.174 16.0401 77.294 16.0401C76.174 16.0401 75.1806 15.8135 74.3139 15.3601C73.4473 14.8935 72.774 14.2468 72.294 13.4201C71.8273 12.5935 71.5939 11.6601 71.5939 10.6201C71.5939 9.59345 71.8206 8.66679 72.2739 7.84012C72.7406 7.01346 73.374 6.37346 74.174 5.92012C74.9873 5.45346 75.9006 5.22012 76.9139 5.22012C77.8739 5.22012 78.7473 5.44012 79.534 5.88012C80.3206 6.30679 80.9473 6.91345 81.4139 7.70012C81.8806 8.48679 82.1206 9.39346 82.1339 10.4201L73.714 12.0601C73.9806 12.7935 74.4273 13.3601 75.0539 13.7601C75.6939 14.1601 76.4606 14.3601 77.354 14.3601ZM76.9139 6.84012C76.2473 6.84012 75.6473 6.99345 75.114 7.30012C74.594 7.60679 74.1873 8.04012 73.894 8.60012C73.6006 9.14679 73.4539 9.78679 73.4539 10.5201V10.7201L80.2339 9.44012C80.0606 8.66679 79.674 8.04012 79.074 7.56012C78.474 7.08012 77.7539 6.84012 76.9139 6.84012Z" fill="white"/>
<path d="M7.43065 16.3427C6.7145 16.3427 6.07164 16.3101 5.50199 16.245C4.94862 16.1799 4.33829 16.0577 3.67099 15.8786C2.92231 15.6831 2.30383 15.4307 1.81557 15.1213C1.3273 14.7956 0.92041 14.3477 0.594896 13.7777C0.253108 13.2077 0.0822144 12.5319 0.0822144 11.7501V4.788C0.0822144 1.596 2.53169 0 7.43065 0C8.68389 0 10.3603 0.179145 12.4598 0.537429V3.39557C10.5718 2.93957 8.91171 2.71157 7.47948 2.71157C6.8773 2.71157 6.40529 2.72785 6.0635 2.76043C5.73798 2.793 5.3962 2.87443 5.03814 3.00471C4.27318 3.26528 3.89071 3.84343 3.89071 4.73914V11.4814C3.89071 12.9146 5.20089 13.6311 7.82126 13.6311C8.94428 13.6311 10.523 13.395 12.5575 12.9227V15.8053C10.816 16.1636 9.10701 16.3427 7.43065 16.3427ZM20.3748 16.3427C18.8611 16.3427 16.9895 16.1961 14.7597 15.903V12.996C17.5266 13.4195 19.4145 13.6311 20.4236 13.6311C22.5395 13.6311 23.5973 13.0856 23.5973 11.9944V10.9684C23.5973 10.4473 23.4428 10.0483 23.1335 9.77143C22.8405 9.49455 22.3034 9.35614 21.5222 9.35614H19.6668C16.1838 9.35614 14.4423 7.97188 14.4423 5.20329V4.03071C14.4423 2.64643 15.0201 1.62857 16.1757 0.977143C17.3312 0.325716 19.1623 0 21.6687 0C22.9707 0 24.6227 0.105859 26.6246 0.317571V3.15129C24.167 2.85814 22.4743 2.71157 21.5466 2.71157C20.2609 2.71157 19.3982 2.81743 18.9588 3.02914C18.4868 3.25715 18.2508 3.61543 18.2508 4.104V5.22771C18.2508 6.05829 18.9507 6.47357 20.3504 6.47357H22.2546C24.0612 6.47357 25.3714 6.80741 26.1852 7.47514C26.999 8.14288 27.4058 9.16072 27.4058 10.5287V11.5791C27.4058 13.4683 26.7304 14.7467 25.3795 15.4144C24.7285 15.7564 24.0043 15.9926 23.2067 16.1229C22.4255 16.2694 21.4815 16.3427 20.3748 16.3427Z" fill="#5E5CE6"/>
</svg>
