<svg width="200" height="17" viewBox="0 0 200 17" fill="none" xmlns="http://www.w3.org/2000/svg">
<path d="M6.42188 8.7168C6.42188 9.4082 6.36719 10.0254 6.25781 10.5684C6.15234 11.1113 5.98047 11.5723 5.74219 11.9512C5.50781 12.3301 5.19922 12.6191 4.81641 12.8184C4.43359 13.0176 3.96875 13.1172 3.42188 13.1172C2.73438 13.1172 2.16992 12.9434 1.72852 12.5957C1.28711 12.2441 0.960938 11.7402 0.75 11.084C0.539062 10.4238 0.433594 9.63477 0.433594 8.7168C0.433594 7.79102 0.529297 7 0.720703 6.34375C0.916016 5.68359 1.23242 5.17773 1.66992 4.82617C2.10742 4.47461 2.69141 4.29883 3.42188 4.29883C4.10547 4.29883 4.66797 4.47461 5.10938 4.82617C5.55469 5.17383 5.88477 5.67773 6.09961 6.33789C6.31445 6.99414 6.42188 7.78711 6.42188 8.7168ZM2.23242 8.7168C2.23242 9.36914 2.26758 9.91406 2.33789 10.3516C2.41211 10.7852 2.53516 11.1113 2.70703 11.3301C2.87891 11.5488 3.11719 11.6582 3.42188 11.6582C3.72266 11.6582 3.95898 11.5508 4.13086 11.3359C4.30664 11.1172 4.43164 10.791 4.50586 10.3574C4.58008 9.91992 4.61719 9.37305 4.61719 8.7168C4.61719 8.06445 4.58008 7.51953 4.50586 7.08203C4.43164 6.64453 4.30664 6.31641 4.13086 6.09766C3.95898 5.875 3.72266 5.76367 3.42188 5.76367C3.11719 5.76367 2.87891 5.875 2.70703 6.09766C2.53516 6.31641 2.41211 6.64453 2.33789 7.08203C2.26758 7.51953 2.23242 8.06445 2.23242 8.7168ZM7.55273 12.1621C7.55273 11.7949 7.65234 11.5371 7.85156 11.3887C8.05469 11.2402 8.29883 11.166 8.58398 11.166C8.86133 11.166 9.09961 11.2402 9.29883 11.3887C9.50195 11.5371 9.60352 11.7949 9.60352 12.1621C9.60352 12.5137 9.50195 12.7676 9.29883 12.9238C9.09961 13.0801 8.86133 13.1582 8.58398 13.1582C8.29883 13.1582 8.05469 13.0801 7.85156 12.9238C7.65234 12.7676 7.55273 12.5137 7.55273 12.1621ZM16.7227 8.08984C16.7227 8.58203 16.6855 9.07031 16.6113 9.55469C16.541 10.0391 16.416 10.4961 16.2363 10.9258C16.0566 11.3516 15.8047 11.7305 15.4805 12.0625C15.1562 12.3906 14.7441 12.6484 14.2441 12.8359C13.7441 13.0234 13.1387 13.1172 12.4277 13.1172C12.2598 13.1172 12.0625 13.1094 11.8359 13.0938C11.6094 13.082 11.4219 13.0625 11.2734 13.0352V11.582C11.4297 11.6211 11.5957 11.6523 11.7715 11.6758C11.9473 11.6953 12.125 11.7051 12.3047 11.7051C13.0195 11.7051 13.5703 11.5918 13.957 11.3652C14.3477 11.1387 14.6211 10.8242 14.7773 10.4219C14.9375 10.0195 15.0293 9.55469 15.0527 9.02734H14.9824C14.8691 9.21484 14.7344 9.38477 14.5781 9.53711C14.4258 9.68555 14.2305 9.80469 13.9922 9.89453C13.7539 9.98047 13.4512 10.0234 13.084 10.0234C12.5957 10.0234 12.1699 9.91797 11.8066 9.70703C11.4473 9.49219 11.168 9.18359 10.9688 8.78125C10.7734 8.375 10.6758 7.88477 10.6758 7.31055C10.6758 6.68945 10.793 6.1582 11.0273 5.7168C11.2656 5.27148 11.6035 4.92969 12.041 4.69141C12.4785 4.45312 12.9941 4.33398 13.5879 4.33398C14.0254 4.33398 14.4336 4.41016 14.8125 4.5625C15.1914 4.71094 15.5234 4.93945 15.8086 5.24805C16.0977 5.55664 16.3223 5.94727 16.4824 6.41992C16.6426 6.89258 16.7227 7.44922 16.7227 8.08984ZM13.623 5.78711C13.2715 5.78711 12.9844 5.9082 12.7617 6.15039C12.5391 6.39258 12.4277 6.77148 12.4277 7.28711C12.4277 7.70117 12.5234 8.0293 12.7148 8.27148C12.9062 8.51367 13.1973 8.63477 13.5879 8.63477C13.8574 8.63477 14.0918 8.57617 14.291 8.45898C14.4902 8.33789 14.6445 8.1875 14.7539 8.00781C14.8672 7.82422 14.9238 7.63672 14.9238 7.44531C14.9238 7.24609 14.8965 7.04883 14.8418 6.85352C14.7871 6.6582 14.7051 6.48047 14.5957 6.32031C14.4863 6.16016 14.3496 6.03125 14.1855 5.93359C14.0254 5.83594 13.8379 5.78711 13.623 5.78711ZM20.5898 4.32227C21.082 4.32227 21.5352 4.39844 21.9492 4.55078C22.3672 4.70312 22.7012 4.93359 22.9512 5.24219C23.2012 5.54688 23.3262 5.92969 23.3262 6.39062C23.3262 6.73438 23.2578 7.03516 23.1211 7.29297C22.9883 7.55078 22.8066 7.77734 22.5762 7.97266C22.3457 8.16406 22.084 8.33203 21.791 8.47656C22.0957 8.63672 22.3848 8.82422 22.6582 9.03906C22.9316 9.25 23.1543 9.49805 23.3262 9.7832C23.502 10.0684 23.5898 10.4004 23.5898 10.7793C23.5898 11.2559 23.4629 11.6699 23.209 12.0215C22.9551 12.3691 22.6035 12.6387 22.1543 12.8301C21.7051 13.0215 21.1836 13.1172 20.5898 13.1172C19.9492 13.1172 19.4043 13.0254 18.9551 12.8418C18.5059 12.6582 18.1641 12.3965 17.9297 12.0566C17.6953 11.7129 17.5781 11.3027 17.5781 10.8262C17.5781 10.4355 17.6504 10.0957 17.7949 9.80664C17.9434 9.51758 18.1426 9.26953 18.3926 9.0625C18.6426 8.85156 18.918 8.67188 19.2188 8.52344C18.9648 8.36328 18.7324 8.18164 18.5215 7.97852C18.3145 7.77539 18.1484 7.54297 18.0234 7.28125C17.9023 7.01953 17.8418 6.71875 17.8418 6.37891C17.8418 5.92578 17.9688 5.54688 18.2227 5.24219C18.4805 4.9375 18.8184 4.70898 19.2363 4.55664C19.6543 4.40039 20.1055 4.32227 20.5898 4.32227ZM19.2539 10.7207C19.2539 11.0293 19.3633 11.2852 19.582 11.4883C19.8047 11.6875 20.1328 11.7871 20.5664 11.7871C21.0156 11.7871 21.3516 11.6914 21.5742 11.5C21.7969 11.3047 21.9082 11.0488 21.9082 10.7324C21.9082 10.5137 21.8438 10.3223 21.7148 10.1582C21.5898 9.99414 21.4316 9.84766 21.2402 9.71875C21.0488 9.58594 20.8555 9.46289 20.6602 9.34961L20.502 9.26758C20.252 9.38086 20.0332 9.50781 19.8457 9.64844C19.6621 9.78906 19.5176 9.94727 19.4121 10.123C19.3066 10.2988 19.2539 10.498 19.2539 10.7207ZM20.5781 5.64648C20.2812 5.64648 20.0352 5.72266 19.8398 5.875C19.6445 6.02734 19.5469 6.24219 19.5469 6.51953C19.5469 6.71484 19.5938 6.88672 19.6875 7.03516C19.7852 7.17969 19.9121 7.30664 20.0684 7.41602C20.2285 7.52539 20.4023 7.62695 20.5898 7.7207C20.7695 7.63477 20.9375 7.53906 21.0938 7.43359C21.25 7.32812 21.377 7.20117 21.4746 7.05273C21.5723 6.9043 21.6211 6.72656 21.6211 6.51953C21.6211 6.24219 21.5215 6.02734 21.3223 5.875C21.127 5.72266 20.8789 5.64648 20.5781 5.64648ZM30.6855 11.2246H29.6543V13H27.8848V11.2246H24.2285V9.96484L27.9844 4.43359H29.6543V9.81836H30.6855V11.2246ZM27.8848 9.81836V8.36523C27.8848 8.22852 27.8867 8.06641 27.8906 7.87891C27.8984 7.69141 27.9062 7.50391 27.9141 7.31641C27.9219 7.12891 27.9297 6.96289 27.9375 6.81836C27.9492 6.66992 27.957 6.56641 27.9609 6.50781H27.9141C27.8398 6.66797 27.7617 6.82422 27.6797 6.97656C27.5977 7.125 27.502 7.28125 27.3926 7.44531L25.8223 9.81836H27.8848ZM34.3242 4.32227C34.8164 4.32227 35.2695 4.39844 35.6836 4.55078C36.1016 4.70312 36.4355 4.93359 36.6855 5.24219C36.9355 5.54688 37.0605 5.92969 37.0605 6.39062C37.0605 6.73438 36.9922 7.03516 36.8555 7.29297C36.7227 7.55078 36.541 7.77734 36.3105 7.97266C36.0801 8.16406 35.8184 8.33203 35.5254 8.47656C35.8301 8.63672 36.1191 8.82422 36.3926 9.03906C36.666 9.25 36.8887 9.49805 37.0605 9.7832C37.2363 10.0684 37.3242 10.4004 37.3242 10.7793C37.3242 11.2559 37.1973 11.6699 36.9434 12.0215C36.6895 12.3691 36.3379 12.6387 35.8887 12.8301C35.4395 13.0215 34.918 13.1172 34.3242 13.1172C33.6836 13.1172 33.1387 13.0254 32.6895 12.8418C32.2402 12.6582 31.8984 12.3965 31.6641 12.0566C31.4297 11.7129 31.3125 11.3027 31.3125 10.8262C31.3125 10.4355 31.3848 10.0957 31.5293 9.80664C31.6777 9.51758 31.877 9.26953 32.127 9.0625C32.377 8.85156 32.6523 8.67188 32.9531 8.52344C32.6992 8.36328 32.4668 8.18164 32.2559 7.97852C32.0488 7.77539 31.8828 7.54297 31.7578 7.28125C31.6367 7.01953 31.5762 6.71875 31.5762 6.37891C31.5762 5.92578 31.7031 5.54688 31.957 5.24219C32.2148 4.9375 32.5527 4.70898 32.9707 4.55664C33.3887 4.40039 33.8398 4.32227 34.3242 4.32227ZM32.9883 10.7207C32.9883 11.0293 33.0977 11.2852 33.3164 11.4883C33.5391 11.6875 33.8672 11.7871 34.3008 11.7871C34.75 11.7871 35.0859 11.6914 35.3086 11.5C35.5312 11.3047 35.6426 11.0488 35.6426 10.7324C35.6426 10.5137 35.5781 10.3223 35.4492 10.1582C35.3242 9.99414 35.166 9.84766 34.9746 9.71875C34.7832 9.58594 34.5898 9.46289 34.3945 9.34961L34.2363 9.26758C33.9863 9.38086 33.7676 9.50781 33.5801 9.64844C33.3965 9.78906 33.252 9.94727 33.1465 10.123C33.041 10.2988 32.9883 10.498 32.9883 10.7207ZM34.3125 5.64648C34.0156 5.64648 33.7695 5.72266 33.5742 5.875C33.3789 6.02734 33.2812 6.24219 33.2812 6.51953C33.2812 6.71484 33.3281 6.88672 33.4219 7.03516C33.5195 7.17969 33.6465 7.30664 33.8027 7.41602C33.9629 7.52539 34.1367 7.62695 34.3242 7.7207C34.5039 7.63477 34.6719 7.53906 34.8281 7.43359C34.9844 7.32812 35.1113 7.20117 35.209 7.05273C35.3066 6.9043 35.3555 6.72656 35.3555 6.51953C35.3555 6.24219 35.2559 6.02734 35.0566 5.875C34.8613 5.72266 34.6133 5.64648 34.3125 5.64648Z" fill="white"/>
<rect x="47" y="7" width="153" height="4" rx="2" fill="#C73434"/>
<rect x="47" y="7" width="84" height="4" rx="2" fill="#FF9500"/>
<rect x="47" y="7" width="70" height="4" rx="2" fill="#FFDA44"/>
<rect x="47" y="7" width="28" height="4" rx="2" fill="#29B474"/>
<rect x="47" y="7" width="14" height="4" rx="2" fill="#47EF71"/>
<rect x="185" y="1" width="4" height="16" rx="1" fill="white"/>
</svg>
